PathFileType	4	(X/Y/Z)	C:/Users/opensim2020/Desktop/walking_exp_matlab/subject02_walking05_straight_04.trc	
DataRate	CameraRate	NumFrames	NumMarkers	Units	OrigDataRate	OrigDataStartFrame	OrigNumFrames	
100.00	100.00	8	42	mm	100.00	2846	220	
Frame#	Time	LFHD			RFHD			LBHD			RBHD			C7			T10			CLAV			STRN			RBAK			LSHO			LUPA			LELB			LFRM			LWRA			LWRB			LFIN			RSHO			RUPA			RELB			RFRM			RWRA			RWRB			RFIN			LASI			RASI			LPSI			RPSI			LTHI			LKNE			LTIB			LANK			LHEE			LTOE			RTHI			RKNE			RTIB			RANK			RHEE			RTOE			*39			*40			*41			
		X1	Y1	Z1	X2	Y2	Z2	X3	Y3	Z3	X4	Y4	Z4	X5	Y5	Z5	X6	Y6	Z6	X7	Y7	Z7	X8	Y8	Z8	X9	Y9	Z9	X10	Y10	Z10	X11	Y11	Z11	X12	Y12	Z12	X13	Y13	Z13	X14	Y14	Z14	X15	Y15	Z15	X16	Y16	Z16	X17	Y17	Z17	X18	Y18	Z18	X19	Y19	Z19	X20	Y20	Z20	X21	Y21	Z21	X22	Y22	Z22	X23	Y23	Z23	X24	Y24	Z24	X25	Y25	Z25	X26	Y26	Z26	X27	Y27	Z27	X28	Y28	Z28	X29	Y29	Z29	X30	Y30	Z30	X31	Y31	Z31	X32	Y32	Z32	X33	Y33	Z33	X34	Y34	Z34	X35	Y35	Z35	X36	Y36	Z36	X37	Y37	Z37	X38	Y38	Z38	X39	Y39	Z39	X40	Y40	Z40	X41	Y41	Z41	X42	Y42	Z42	

111	1.100	1531.34924	-8.84440	1713.03772	1388.67688	0.99840	1694.48303	1547.24341	125.69408	1647.06982	1406.17004	147.91122	1628.67810	1464.29468	191.55026	1504.40283	1449.40381	242.90936	1227.20093	1484.66650	53.34114	1433.31995	1466.71729	0.33354	1264.40442	1387.88599	244.30632	1331.58740	1648.07947	141.11317	1465.10522	1715.72852	196.14313	1267.90247	1718.19934	225.46739	1130.69055	1732.54199	248.77425	1002.12634	1714.40466	217.47787	864.71967	1736.90161	267.44144	880.24554	1741.47522	267.31680	812.83649	1284.02295	99.71303	1479.58887	1186.96899	91.36188	1293.64648	1156.38733	37.23675	1156.44324	1149.70203	-43.92737	1064.49768	1183.28918	-141.30812	978.22760	1146.39478	-107.65147	951.35663	1150.53247	-172.04773	919.33929	1580.98145	-8.93116	975.80731	1321.42175	8.41515	949.96051	1513.85840	208.31934	1009.99597	1400.81372	219.84967	1005.95264	1647.40137	-8.58096	675.58026	1615.43408	-38.23395	477.08841	1621.60938	-31.24196	282.71896	1587.20569	-78.00569	67.30632	1535.47278	-45.92977	39.10970	1592.00281	-234.50089	38.61155	1263.19495	161.69043	660.50208	1293.46570	220.72575	459.79050	1295.46594	349.61954	319.20886	1330.98584	455.49512	156.90840	1391.01672	504.18442	123.79088	1315.49683	345.82397	36.65405	1446.99451	93.39507	1785.75354	-3360.18457	2845.11743	1033.73157			 
112	1.110	1533.77417	-18.98392	1713.98193	1390.76550	-8.99636	1695.03284	1549.86389	115.69237	1648.06116	1408.69836	138.08261	1629.58105	1466.50769	181.75766	1505.33752	1451.51428	232.05681	1227.51025	1486.66064	44.66488	1433.97559	1469.29272	-10.26171	1265.87683	1390.00195	233.60167	1331.67444	1650.58630	130.97771	1465.74365	1718.72070	183.86304	1267.85132	1721.61841	211.98656	1130.43738	1735.77625	233.40604	1001.40198	1717.51624	200.56989	864.71082	1740.17419	250.36298	879.30359	1744.90479	249.37646	812.02240	1286.02344	89.47206	1480.36414	1189.69458	81.37547	1293.63599	1159.61975	29.01253	1156.08386	1152.56763	-51.44805	1063.16040	1186.27283	-147.44835	975.84125	1149.43298	-113.50410	949.48328	1153.38721	-177.40114	916.63239	1584.50757	-20.62907	977.37885	1325.35010	-4.05372	950.55884	1516.48657	196.78027	1011.78845	1402.87195	207.28448	1006.56775	1649.17053	-20.46281	676.86847	1616.56372	-48.88934	477.92651	1623.53772	-38.77184	283.55341	1587.05005	-79.97688	67.68436	1535.78125	-46.54509	39.40269	1590.52087	-236.34369	37.27204	1264.81958	148.17184	661.06482	1291.59900	205.28101	460.40973	1294.81116	337.70447	323.32443	1330.42981	447.61221	163.97281	1391.40820	495.96710	133.17778	1315.40967	344.90546	36.68310	1449.20093	83.13237	1786.42444	-3360.28320	2845.23315	1033.82837			 
113	1.120	1536.02014	-29.10670	1714.83826	1393.01636	-18.91441	1695.90491	1551.97803	105.47118	1649.09326	1411.06506	128.15770	1630.67188	1468.35046	172.03214	1506.18945	1453.55273	221.43271	1227.99500	1488.96545	34.85186	1435.29736	1471.85278	-20.82967	1267.50708	1392.47009	223.78508	1332.13196	1652.94189	120.93827	1466.71375	1721.60913	171.20697	1267.93481	1724.49243	197.74323	1130.13110	1739.19287	217.53229	1001.16797	1720.48633	182.95042	864.86481	1743.61389	232.84297	878.85254	1748.33972	230.82657	811.49957	1287.99890	79.06665	1481.49194	1192.71667	73.05310	1294.12073	1162.94995	20.96267	1155.99976	1155.82935	-58.05043	1062.07837	1189.19946	-153.05956	973.48669	1152.41736	-118.78721	947.55573	1156.15039	-182.11069	913.91302	1588.01355	-31.95953	979.45862	1329.62634	-16.30547	951.54114	1518.97107	185.58508	1013.48694	1404.63660	194.78221	1007.44177	1651.01624	-32.53168	678.12152	1617.63684	-58.75226	478.42453	1624.02124	-44.97701	284.33713	1586.96716	-81.51969	67.66953	1536.02173	-47.01679	39.65611	1589.80347	-237.96379	36.23665	1266.61499	134.21956	661.55798	1289.71899	188.60905	460.67023	1293.79102	324.30481	327.19693	1330.09778	438.24261	171.29417	1391.97607	486.14240	142.86726	1315.48364	343.38818	36.55410	1451.82373	73.20635	1787.64526	-3360.30249	2845.22852	1033.80896			 
114	1.130	1538.21948	-39.18766	1715.66968	1395.41943	-28.78553	1696.93640	1554.25623	95.53491	1650.22595	1413.49365	118.73339	1631.93823	1469.94641	162.41132	1507.07373	1455.48450	210.86519	1228.55542	1491.15002	25.17253	1436.67371	1474.42627	-31.40458	1269.16968	1393.89673	212.76646	1332.50708	1655.10486	111.11699	1467.90283	1724.62537	158.92242	1268.59766	1727.64905	183.30251	1130.28809	1742.59167	201.15623	1001.04877	1723.03418	164.73943	865.09412	1747.21533	214.45282	878.36584	1751.94324	211.53180	811.26764	1290.12634	68.76317	1482.86133	1195.68457	63.75101	1294.69299	1166.32312	13.13883	1156.32117	1159.26355	-64.20450	1061.16663	1192.01453	-158.35403	971.27191	1155.40930	-123.52576	945.75385	1158.90308	-186.18593	911.14642	1591.45898	-43.07323	982.10205	1334.18152	-28.25345	952.73920	1521.32288	174.50700	1014.93591	1406.37756	182.58409	1008.43829	1653.25793	-44.49860	679.11646	1619.00818	-67.15630	478.86951	1624.10449	-50.00065	285.20938	1586.76245	-82.19462	67.75070	1535.81616	-47.29221	40.09926	1589.77783	-238.90161	35.41149	1268.30017	119.95708	661.81042	1287.79529	170.76894	460.61771	1292.51831	309.54904	330.80399	1329.88794	427.20203	178.32845	1392.71619	474.60309	152.73375	1316.23462	341.88901	36.65344	1454.20142	62.99517	1788.70203	-3360.31519	2845.16748	1033.72705			 
115	1.140	1540.40320	-49.25540	1716.43372	1397.36646	-38.67939	1697.80566	1556.45361	85.68200	1651.42126	1415.63684	109.08572	1633.41577	1471.55530	152.85573	1507.97681	1457.51367	200.54262	1229.25330	1493.26489	15.29570	1438.22766	1476.93018	-41.84415	1270.84106	1395.62207	202.36073	1333.24597	1657.11096	101.45457	1469.30774	1727.51379	146.30107	1269.29797	1730.99194	168.76848	1130.74341	1746.16345	184.38156	1001.25989	1726.14148	146.03700	865.86377	1750.99402	195.68002	878.36932	1755.61780	191.67763	811.31854	1292.40308	58.83883	1484.46875	1198.10889	54.60564	1296.04443	1169.68274	5.49589	1156.90076	1162.48267	-70.63248	1060.71057	1194.90674	-162.96301	968.85400	1158.26685	-127.75127	944.07526	1161.70630	-189.65059	908.33954	1594.85193	-54.02966	984.96539	1338.74915	-39.73436	954.06146	1523.60706	163.50607	1016.09857	1408.17969	170.85930	1009.51245	1655.25769	-55.65432	679.87823	1620.36035	-74.19093	479.23871	1623.77112	-53.13687	285.79761	1586.45154	-82.52519	67.89431	1535.94788	-47.41037	39.87511	1589.32483	-239.71739	34.70723	1269.96179	105.47399	661.66248	1286.24231	152.03941	460.30698	1291.15125	293.60245	334.13132	1329.45007	414.53894	185.03159	1393.08850	461.54825	162.61440	1317.18860	340.22281	36.35602	1456.50085	52.74531	1789.97241	-3357.38379	2845.92236	1033.97278			 
116	1.150	1542.06165	-59.37315	1716.99963	1399.60522	-48.49838	1699.03149	1558.49634	75.92474	1652.67029	1417.57849	99.36710	1634.95483	1473.26892	143.44833	1508.92810	1459.58069	190.30966	1229.99023	1495.32446	5.64414	1439.77075	1479.34558	-52.23302	1272.58081	1397.55640	192.56155	1334.30798	1659.00647	91.99767	1470.83020	1730.28064	133.76399	1270.21143	1734.32507	154.04410	1131.38562	1749.77490	167.27748	1001.69830	1729.53809	126.94632	867.15265	1754.76343	176.27632	878.54822	1759.30640	171.11714	811.53094	1294.55359	48.57529	1486.13025	1201.30884	45.64939	1297.12488	1173.09766	-1.94419	1157.60364	1165.51965	-76.09617	1060.02417	1197.72656	-167.17010	966.62598	1161.09863	-131.58733	942.48254	1164.44397	-192.89189	905.77985	1598.01746	-64.73370	987.70575	1343.28467	-50.83758	955.45264	1525.87256	152.60570	1017.06244	1410.11829	159.75551	1010.59381	1657.28809	-65.77889	680.66211	1622.13220	-79.19752	479.20532	1623.42444	-54.56691	285.73395	1586.20117	-82.73902	67.77941	1536.05249	-47.25715	40.22786	1588.83936	-240.32201	34.15396	1271.37354	90.71048	661.03851	1284.88147	133.34177	459.38248	1290.00928	276.55032	337.05743	1328.73486	400.32309	191.17369	1393.09314	447.41003	172.27449	1318.39343	337.02951	37.41705	1458.77490	42.53825	1791.27844	-3357.46021	2845.79150	1033.76636			 
117	1.160	1544.18542	-69.37849	1718.06787	1401.53528	-58.37247	1700.19653	1560.51685	66.22543	1654.05469	1419.48621	89.64183	1636.56653	1475.16309	133.75684	1510.00317	1461.71484	180.07776	1230.90137	1497.34180	-4.24030	1441.42688	1481.51965	-62.52875	1274.31702	1399.00024	182.29163	1335.35925	1660.81311	82.55434	1472.40784	1732.54749	121.98225	1271.20850	1737.77673	139.17538	1132.19641	1753.54541	149.72931	1002.37842	1732.48145	107.25780	868.17261	1758.78625	156.57211	879.16144	1763.06238	150.06142	811.99396	1296.51819	38.62288	1487.79907	1203.73926	36.71210	1298.84985	1176.47192	-9.27596	1158.46228	1168.39368	-81.80883	1059.63000	1200.46021	-171.13876	964.40521	1163.92700	-135.17807	940.93988	1167.28259	-195.95094	902.95056	1600.90491	-75.01121	990.13916	1347.59241	-61.92019	956.96667	1528.09155	141.86377	1017.96600	1412.17419	149.24272	1011.68689	1659.50342	-74.79056	681.57623	1624.00183	-82.93808	478.88071	1623.83496	-55.15047	285.33429	1586.18091	-82.85948	67.69872	1535.88904	-47.37150	39.93443	1588.70251	-240.66222	33.74166	1272.76831	75.65852	660.09442	1283.91809	113.57571	458.84351	1289.20081	258.45367	339.61182	1328.09045	385.34595	197.11870	1392.83887	432.65033	181.46352	1319.95825	331.94263	39.51609	1460.90930	32.37831	1792.60144	-3357.38281	2845.83936	1033.97095			 
118	1.170	1546.23218	-79.20590	1719.20239	1403.31665	-68.18762	1701.40601	1562.36646	56.42386	1655.51672	1421.30981	80.02250	1638.28369	1477.07471	124.33995	1511.27991	1463.87134	170.09312	1232.04382	1499.22314	-13.90036	1442.95752	1483.53101	-72.53915	1276.01904	1400.77661	172.43193	1336.88489	1662.54736	73.08694	1473.99304	1735.67310	108.53472	1272.31580	1741.21472	124.23415	1133.08167	1757.24255	132.06932	1003.07092	1735.98621	87.12635	869.89441	1762.74561	136.50264	879.79022	1766.98022	128.53720	812.78387	1298.57007	28.63846	1489.51868	1206.19275	27.84922	1300.37317	1179.89722	-16.27895	1159.20618	1171.45959	-87.44945	1059.58301	1202.83569	-175.41275	962.21527	1166.36096	-137.89893	939.67993	1169.82788	-197.94879	899.99274	1603.48816	-85.02197	992.10809	1351.08020	-71.78213	958.04419	1530.31702	131.32776	1018.99268	1414.32324	139.20444	1012.89618	1661.22363	-82.29305	682.23743	1626.00464	-86.01734	478.73514	1625.16516	-55.78914	285.21591	1586.53223	-82.82760	67.76416	1535.88867	-47.33170	40.20223	1588.50806	-240.85483	33.48491	1274.16589	60.16045	659.13580	1283.20264	93.63121	458.26471	1288.52795	239.30090	341.59186	1327.59094	369.69516	203.13379	1392.89038	417.39606	190.73355	1321.75183	324.03253	43.48800	1463.02979	22.25414	1794.18872	-3360.30859	2845.20068	1033.60962			 
